<svg xmlns="http://www.w3.org/2000/svg" version="1.1" xmlns:xlink="http://www.w3.org/1999/xlink" xmlns:svgjs="http://svgjs.dev/svgjs" viewBox="0 0 800 800"><defs><linearGradient x1="50%" y1="0%" x2="50%" y2="100%" id="ssspill-grad"><stop stop-color="hsl(180, 69%, 40%)" stop-opacity="1" offset="45%"></stop><stop stop-color="hsl(180, 69%, 60%)" stop-opacity="1" offset="100%"></stop></linearGradient><filter id="ssspot-filter" x="-20%" y="-20%" width="140%" height="140%" filterUnits="objectBoundingBox" primitiveUnits="userSpaceOnUse" color-interpolation-filters="sRGB">
	<feTurbulence type="turbulence" baseFrequency="0.022 0.218" numOctaves="2" seed="298" stitchTiles="stitch" x="0%" y="0%" width="100%" height="100%" result="turbulence"></feTurbulence>
	<feGaussianBlur stdDeviation="0 3" x="0%" y="0%" width="100%" height="100%" in="turbulence" edgeMode="duplicate" result="blur"></feGaussianBlur>
	<feDisplacementMap in="SourceGraphic" in2="blur" scale="32" xChannelSelector="R" yChannelSelector="B" x="0%" y="0%" width="100%" height="100%" result="displacementMap"></feDisplacementMap>
</filter></defs><rect width="100%" height="100%" fill="hsl(254, 5%, 97%)"></rect><g fill="url(#ssspill-grad)" filter="url(#ssspot-filter)"><circle r="7.275396347289448" cx="625.3276317002155" cy="411.1781451042895" opacity="0.32675162115827483"></circle><circle r="8.030541582413973" cx="211.31372376625154" cy="779.4583336591905" opacity="0.545151703142437"></circle><circle r="5.795736190294775" cx="759.2315792721348" cy="13.29532848900758" opacity="0.6723891282718826"></circle><circle r="6.505047279105515" cx="306.4160772064191" cy="102.68131145558782" opacity="0.3154125845437155"></circle><circle r="7.869341326569925" cx="631.9027586638601" cy="56.54524118822949" opacity="0.37731878714685185"></circle><circle r="7.586325761180108" cx="339.8856719727477" cy="623.8366540022761" opacity="0.6482802944982684"></circle><circle r="6.460435984623515" cx="251.93878718475395" cy="595.3118824434118" opacity="0.8216380235017793"></circle><circle r="10.920669652849398" cx="495.478728275884" cy="503.83388641122525" opacity="0.44148199027854584"></circle><circle r="6.3335791549316545" cx="413.19611770051955" cy="576.8010879311953" opacity="0.5105594706259471"></circle><circle r="8.02406671578139" cx="781.6088128759421" cy="584.5074519600352" opacity="0.7916992761793842"></circle><circle r="8.624718318656091" cx="359.4770196714274" cy="661.7557758441508" opacity="0.1556365583490491"></circle><circle r="6.80772244082011" cx="445.0351317506699" cy="189.95147055903658" opacity="0.5669782992801233"></circle><circle r="9.0411400233763" cx="701.0065184826943" cy="609.6780345268605" opacity="0.8006757922043263"></circle><circle r="6.860056244380665" cx="21.28661889325537" cy="446.918704001355" opacity="0.8193654615014367"></circle><circle r="9.376199823353065" cx="778.8605527989831" cy="53.399337481253006" opacity="0.10928165706826698"></circle><circle r="6.130353698383608" cx="79.31280402487928" cy="244.05103287099493" opacity="0.9919330953342871"></circle><circle r="5.614819257477528" cx="296.9467870035311" cy="13.504630146035625" opacity="0.6577416827802127"></circle><circle r="6.420759913624314" cx="12.966457628132446" cy="596.6164526608987" opacity="0.15698267069078833"></circle><circle r="8.161906689697858" cx="85.49095009333165" cy="729.8947177218496" opacity="0.8392523857039126"></circle><circle r="6.3136417811984975" cx="384.47948870906004" cy="272.2839654617301" opacity="0.3138264731361752"></circle><circle r="8.687120951068625" cx="746.2787643691047" cy="424.90109210505483" opacity="0.9647537299444449"></circle><circle r="3.5599805366496162" cx="42.488385055564486" cy="584.9193428260302" opacity="0.5659628643123178"></circle><circle r="6.014644199857963" cx="324.3309447411522" cy="221.55085837105764" opacity="0.14912191454168036"></circle><circle r="6.48280580012419" cx="419.06997726928876" cy="59.00215016248419" opacity="0.2122298103422214"></circle><circle r="7.158951832638592" cx="297.84366312458496" cy="767.719582486706" opacity="0.22658051401715398"></circle><circle r="9.91694217051681" cx="501.0181726642572" cy="105.52250807833076" opacity="0.4756168655686476"></circle><circle r="5.808725338474094" cx="491.67722627788527" cy="321.3145463831443" opacity="0.42445749644013653"></circle><circle r="8.351085710168334" cx="560.6175815974318" cy="639.3218879975221" opacity="0.2063858722264203"></circle><circle r="5.9545618572710906" cx="489.7197556152965" cy="417.3409702730448" opacity="0.1390082396862971"></circle><circle r="7.430451278932294" cx="95.09766036080539" cy="297.7507275701252" opacity="0.5314285445811767"></circle><circle r="4.1605293500145715" cx="14.229393191659845" cy="356.6113752390136" opacity="0.8337057868475287"></circle><circle r="7.202125823268531" cx="380.1069526373753" cy="612.2953263627702" opacity="0.6409800341932705"></circle><circle r="6.8306505456530076" cx="505.900413071192" cy="290.4204181864509" opacity="0.9436183884628719"></circle><circle r="5.6451312984891935" cx="741.9966436164661" cy="742.211487968566" opacity="0.2858175834725527"></circle><circle r="6.13523775699424" cx="548.4679282412732" cy="84.32078595303" opacity="0.8920296252740414"></circle><circle r="5.383782100721957" cx="170.29056203414922" cy="45.69702338792248" opacity="0.9864260280690793"></circle><circle r="4.230377746110841" cx="98.93228402199416" cy="547.2207154298279" opacity="0.6792542899275986"></circle><circle r="9.560155720795045" cx="761.6666140123771" cy="620.1841134554655" opacity="0.4435079110995458"></circle><circle r="10.028283319240764" cx="653.60899643892" cy="238.04733386531117" opacity="0.6757584249440582"></circle><circle r="6.914782484620721" cx="678.6703528479089" cy="582.056855906807" opacity="0.9697599122042778"></circle><circle r="6.046394704399074" cx="156.54145743117573" cy="14.935122534973829" opacity="0.3212614677727493"></circle><circle r="8.289332853501557" cx="610.3076652474231" cy="444.421311177354" opacity="0.36085385648961044"></circle><circle r="8.307820989703558" cx="476.5614746579005" cy="159.28492664136118" opacity="0.8318591403504494"></circle><circle r="6.929656510940935" cx="15.452978820218933" cy="549.9582356584444" opacity="0.6823403987802646"></circle><circle r="4.957328811891574" cx="575.2610593208846" cy="107.29590837666062" opacity="0.5076701953894962"></circle><circle r="5.2250529060142545" cx="658.6267218595015" cy="135.56837756278424" opacity="0.24093534135078634"></circle><circle r="10.730973741128377" cx="644.1152668067401" cy="479.91862680367973" opacity="0.37987014816397935"></circle><circle r="8.662202913544837" cx="701.2484208610929" cy="143.06680647871568" opacity="0.39160109717484815"></circle><circle r="8.506647491495347" cx="728.0445509389173" cy="474.1312434626415" opacity="0.8918247819708811"></circle><circle r="4.095546761997115" cx="242.83296064142638" cy="637.6829944831144" opacity="0.2023695152853897"></circle><circle r="6.873254772222144" cx="572.1680227133755" cy="281.9774166123018" opacity="0.5684388404017646"></circle><circle r="7.68056800177709" cx="602.656717909213" cy="497.10680323273897" opacity="0.8098206657976486"></circle><circle r="7.470010099334367" cx="360.3381679745138" cy="397.3975070617878" opacity="0.6171882375331503"></circle><circle r="7.113067244788759" cx="477.59241826157654" cy="73.54722750970852" opacity="0.557214812035388"></circle><circle r="4.824425656375719" cx="246.7664872750044" cy="471.57186465175135" opacity="0.45524189965535256"></circle><circle r="9.019559093589713" cx="568.2311077622884" cy="363.3748794152399" opacity="0.6886338360727419"></circle><circle r="7.038328137480718" cx="667.7607893343283" cy="774.1684969905779" opacity="0.4613748833348532"></circle><circle r="7.655744493925042" cx="371.736891447568" cy="775.7492118626682" opacity="0.8141761677425298"></circle><circle r="7.038528725404445" cx="426.1667908519226" cy="361.1433137177134" opacity="0.9640774036689236"></circle><circle r="8.806633856108622" cx="451.08673161638205" cy="615.7398156877481" opacity="0.7356510240415209"></circle><circle r="7.152694544236719" cx="552.4528181090812" cy="742.6792239739624" opacity="0.27255338866240875"></circle><circle r="5.318852085148066" cx="204.05124919683297" cy="189.48302144885383" opacity="0.3272741921021731"></circle><circle r="9.23223051928672" cx="508.26539032755323" cy="543.5345433263913" opacity="0.5192645430701353"></circle><circle r="7.183855491310782" cx="385.2344875781677" cy="540.2592267790423" opacity="0.6324292241142857"></circle><circle r="9.34511631279412" cx="102.7798016384163" cy="375.69911826501374" opacity="0.9825866470123596"></circle><circle r="9.13184687445757" cx="138.39863761613668" cy="65.61065183805033" opacity="0.4315771761665623"></circle><circle r="5.256630510044894" cx="365.5818049220677" cy="300.440962059101" opacity="0.3867492884222663"></circle><circle r="4.861009936787678" cx="663.7480085978376" cy="671.1504277306389" opacity="0.5629153030975828"></circle><circle r="6.335036996453707" cx="67.11372999902053" cy="127.21897073326325" opacity="0.35078819689882845"></circle><circle r="7.351325324900066" cx="128.8190292030158" cy="760.1017631277567" opacity="0.47100605477391855"></circle><circle r="9.368686671171922" cx="443.7301121299203" cy="133.33998196242354" opacity="0.4886761507573324"></circle><circle r="9.975602673406813" cx="571.305163831568" cy="461.412811904493" opacity="0.7866946824923297"></circle><circle r="6.888198352919457" cx="131.69923662025445" cy="608.1130903866082" opacity="0.7650579924822088"></circle><circle r="8.915728942420202" cx="778.4891716231967" cy="536.3019807138202" opacity="0.47263450301811394"></circle><circle r="9.524297084845298" cx="44.67329628917622" cy="410.91862685975315" opacity="0.19884777892592356"></circle><circle r="10.239494123126633" cx="127.75416116426359" cy="213.47754600271293" opacity="0.620034988252052"></circle><circle r="7.974437662076442" cx="67.44480803089283" cy="652.2365990139583" opacity="0.4417911592673922"></circle><circle r="6.294275253293064" cx="369.53960127399233" cy="24.53710664240606" opacity="0.2774781409165514"></circle><circle r="6.820323877111159" cx="117.05583250863148" cy="19.78751652543336" opacity="0.11273487457365569"></circle><circle r="9.572057911625473" cx="494.6502472236741" cy="667.7320874560785" opacity="0.4123704155091362"></circle><circle r="10.880525149446658" cx="617.0979094798935" cy="198.7895181101958" opacity="0.8067584776262615"></circle><circle r="5.112392394826141" cx="213.30233811650078" cy="325.1551658247642" opacity="0.37046207532914743"></circle><circle r="10.045477670336139" cx="131.80836806229095" cy="107.21968606359812" opacity="0.532080662639231"></circle><circle r="5.5299478976992456" cx="344.3605092895949" cy="261.95467657976354" opacity="0.5707675782746554"></circle><circle r="5.283826107951821" cx="51.3801175053698" cy="84.3637079361171" opacity="0.7830551751565062"></circle><circle r="3.8882896650425605" cx="787.5105088425356" cy="15.51957171637624" opacity="0.7316231309286888"></circle><circle r="7.229376064655819" cx="389.0835518283191" cy="335.10960302321087" opacity="0.5832986080531302"></circle><circle r="6.499234794964488" cx="457.3193032591249" cy="668.4729079283445" opacity="0.8486845214806149"></circle><circle r="9.98137955104309" cx="35.26879185576051" cy="777.7354119770685" opacity="0.8925695583077483"></circle><circle r="6.854535605474679" cx="425.75627333288475" cy="681.6323135319132" opacity="0.5525570886852426"></circle><circle r="6.0369162534086405" cx="541.100619183704" cy="782.7740144112789" opacity="0.43618295874350177"></circle><circle r="6.564029375558036" cx="478.1587696487022" cy="577.4975150475364" opacity="0.7872089778246493"></circle><circle r="6.307420346032439" cx="94.51060317486342" cy="622.9396341857093" opacity="0.8000336947259628"></circle><circle r="5.748855948435742" cx="238.8347738268808" cy="16.509799524024547" opacity="0.22718899203620882"></circle><circle r="3.8850334357712524" cx="396.46694980973905" cy="308.97437018387984" opacity="0.49040182439561386"></circle><circle r="6.2857671464573865" cx="249.48871373071202" cy="743.7412111894166" opacity="0.45726106245616605"></circle><circle r="4.437426934909752" cx="303.39881351841353" cy="447.58799509241567" opacity="0.6324194081204287"></circle><circle r="7.340040786063502" cx="270.0434477576839" cy="109.0565844224168" opacity="0.85229673282685"></circle><circle r="7.433972380869952" cx="370.65396742525417" cy="430.96785597415953" opacity="0.22491143287178178"></circle><circle r="4.069754790062147" cx="257.21847562797427" cy="386.4104646772167" opacity="0.6250778420149402"></circle><circle r="4.864592788900941" cx="633.9521155162512" cy="105.61502059384112" opacity="0.5420084291905592"></circle><circle r="6.390625996513878" cx="120.60663463481049" cy="456.32306056206704" opacity="0.36515792971327243"></circle><circle r="4.4216197894013005" cx="604.3846535518982" cy="100.0220653090401" opacity="0.6045938944776913"></circle><circle r="4.970114965176716" cx="236.37953650356295" cy="532.567199936208" opacity="0.6891188259816619"></circle><circle r="5.293015652254882" cx="116.14225755682112" cy="572.1069159100708" opacity="0.34178072534896137"></circle><circle r="8.35673929713776" cx="740.1274784563861" cy="137.21874437384886" opacity="0.3485839131721041"></circle><circle r="10.521768563755316" cx="723.0358912271604" cy="245.649239451235" opacity="0.42476054731333523"></circle><circle r="6.483132413673113" cx="384.13318869579956" cy="218.22900845041522" opacity="0.7878995172758736"></circle><circle r="4.9215774817522435" cx="595.2693651861398" cy="19.218739146024646" opacity="0.32893492634056176"></circle><circle r="7.069615502152519" cx="12.473949725927133" cy="401.22400457291246" opacity="0.36876131225963693"></circle><circle r="5.371400702514918" cx="784.9347175511825" cy="419.4218505374079" opacity="0.275974469130847"></circle><circle r="5.166210683147862" cx="222.34233165789544" cy="357.81843639216396" opacity="0.9728200337983937"></circle><circle r="6.220665848773061" cx="90.64275722795084" cy="778.8935719585088" opacity="0.8188288241323975"></circle><circle r="6.507786484662137" cx="585.9562007047269" cy="549.8172116693253" opacity="0.3952367268192958"></circle><circle r="8.494101117169706" cx="464.7018185431536" cy="780.781898717206" opacity="0.17540325416402308"></circle><circle r="9.020297246503905" cx="134.06219588866324" cy="692.193405173846" opacity="0.6730412712979585"></circle><circle r="10.398007321530276" cx="103.67861776406956" cy="160.7962398256459" opacity="0.4615469645217728"></circle><circle r="6.563216797230932" cx="733.1145793034196" cy="520.9758891616125" opacity="0.44688801885681706"></circle><circle r="9.882174313790347" cx="582.3105042250006" cy="62.33734592000813" opacity="0.33450035014063406"></circle><circle r="3.9069421480251414" cx="44.78183926903738" cy="617.2605267816147" opacity="0.3842027705371024"></circle><circle r="3.1887642352439873" cx="13.171418239127295" cy="127.39143225089826" opacity="0.894600135413314"></circle><circle r="7.0880439812627705" cx="649.8396495933262" cy="287.7464611555155" opacity="0.9229322498695987"></circle><circle r="7.942522808868324" cx="280.51881358851875" cy="562.9912002573694" opacity="0.5160466731387544"></circle><circle r="7.35503919299532" cx="316.15047293246516" cy="404.23501422528443" opacity="0.253691014528295"></circle><circle r="6.121763288030856" cx="532.1687394616208" cy="445.4291945117976" opacity="0.41396930375276175"></circle><circle r="5.302602370052852" cx="698.1780995280214" cy="685.890639666542" opacity="0.4243356327316363"></circle><circle r="3.901822996152788" cx="259.94091772837345" cy="418.1728610848603" opacity="0.9641611037217963"></circle><circle r="9.039102495965663" cx="527.1762570870405" cy="583.2085472813196" opacity="0.23080818512436757"></circle><circle r="8.597063707333113" cx="66.77448015851888" cy="455.53327762489994" opacity="0.5953418162120762"></circle><circle r="6.815728192596176" cx="404.71815221600815" cy="399.30595115784286" opacity="0.15165080831589572"></circle><circle r="6.936892327721049" cx="779.9052553540978" cy="221.6988951088332" opacity="0.35218689197772646"></circle><circle r="7.596660477459361" cx="65.96475182722331" cy="372.54285540585414" opacity="0.9301755165461292"></circle><circle r="3.9069001011359976" cx="431.40496775632806" cy="287.287408958011" opacity="0.852821917977382"></circle><circle r="5.770303064344468" cx="73.26363325760852" cy="585.7886705463128" opacity="0.2118690283398908"></circle><circle r="7.780158144997845" cx="518.7320539157214" cy="157.12463874579925" opacity="0.699521260791065"></circle><circle r="5.245742987906249" cx="264.9955620859008" cy="784.9281303800269" opacity="0.9319533976132381"></circle><circle r="5.463106680528522" cx="294.9312364547027" cy="306.0057933078891" opacity="0.45997488881366744"></circle><circle r="8.27524720306732" cx="320.348581261583" cy="357.51550400606874" opacity="0.32284341316584597"></circle><circle r="6.714739704752419" cx="779.0882205717638" cy="363.59562132569073" opacity="0.46457354710782184"></circle><circle r="10.793824528421418" cx="151.78920736488826" cy="278.32431295242344" opacity="0.795903086560893"></circle><circle r="8.050646532469298" cx="452.3984373775821" cy="398.45422045857856" opacity="0.8902734354160418"></circle><circle r="7.3030699040854135" cx="539.1606612121835" cy="121.36651209940949" opacity="0.11401559386283912"></circle><circle r="6.15242645543896" cx="257.61543618779007" cy="313.26909506721574" opacity="0.6950584147020972"></circle><circle r="10.523319464091937" cx="737.4380142310767" cy="86.43165563656149" opacity="0.549330085899052"></circle><circle r="6.0206323496252905" cx="772.8608644726269" cy="460.5164218914228" opacity="0.8538609249094818"></circle><circle r="7.270675328108669" cx="182.67527634797008" cy="673.2966734215543" opacity="0.5022173886250033"></circle><circle r="6.9307011064868345" cx="615.4316506630705" cy="776.2220510806736" opacity="0.49632522586287464"></circle><circle r="6.840049534748699" cx="19.34633024601387" cy="229.91606266592348" opacity="0.8178489681010287"></circle><circle r="6.703277052127456" cx="702.4622023655094" cy="399.25893766161545" opacity="0.7147065735593231"></circle><circle r="7.942834056632178" cx="97.38460161979586" cy="495.5967436189774" opacity="0.5180539368730092"></circle><circle r="6.607244709477623" cx="172.12657666481925" cy="121.91178671038784" opacity="0.15591754065076832"></circle><circle r="5.472962654375589" cx="412.8995285162609" cy="259.1392060588035" opacity="0.8866603172651372"></circle><circle r="6.77864277037148" cx="222.54259841964415" cy="398.8308458921096" opacity="0.4327493195408362"></circle><circle r="7.433110568058021" cx="285.3930867162733" cy="367.1080436044425" opacity="0.5304709970281057"></circle><circle r="8.403078314773925" cx="421.82516486465045" cy="99.66371591737844" opacity="0.19221951763213704"></circle><circle r="5.194439484064559" cx="250.58530811006224" cy="670.4715690017583" opacity="0.2610104415489043"></circle><circle r="7.031415854292739" cx="289.9687523823325" cy="257.07482237933914" opacity="0.9236468712575946"></circle><circle r="7.67573530987015" cx="779.8286812618863" cy="774.6634679642391" opacity="0.3734333372634209"></circle><circle r="11.866385167989147" cx="167.8420095967114" cy="325.2554605053567" opacity="0.7569387918823899"></circle><circle r="7.259823631908947" cx="701.2115184190343" cy="287.8941314720559" opacity="0.9889269650048746"></circle><circle r="5.412663661616123" cx="582.3011138263972" cy="140.27227432885823" opacity="0.14441495323063117"></circle><circle r="4.045835144447308" cx="259.57823818028197" cy="139.83754146146399" opacity="0.34473250659005317"></circle><circle r="6.857869583220086" cx="275.94087528912775" cy="40.24261863283685" opacity="0.7813512407351684"></circle><circle r="6.685488975223965" cx="217.48646417161387" cy="223.29340570660187" opacity="0.22268150088702474"></circle><circle r="4.706708407786133" cx="16.49266263669069" cy="323.19705840928674" opacity="0.9359206356978151"></circle><circle r="7.865385671803692" cx="196.79481521962407" cy="265.99582071633256" opacity="0.27884322230857495"></circle><circle r="7.733417372277937" cx="170.36862592705296" cy="728.5624701504897" opacity="0.3925542354778989"></circle><circle r="6.4557428776626296" cx="689.1768060830727" cy="506.11746532665734" opacity="0.7386370369648767"></circle><circle r="7.397592198623823" cx="226.93968512596874" cy="56.237759462634685" opacity="0.11275813236251174"></circle><circle r="6.803192090854158" cx="219.27835457115953" cy="697.0405012411471" opacity="0.5635710255243067"></circle><circle r="3.7838124161113944" cx="705.3531676490384" cy="787.5731267976249" opacity="0.8133087435501687"></circle><circle r="5.880103518569168" cx="454.28815960924896" cy="273.6825419751953" opacity="0.35747288737033756"></circle><circle r="10.565307957413207" cx="669.3734236571559" cy="182.37305703435766" opacity="0.31967010692162506"></circle><circle r="4.597600732552718" cx="591.7532604919952" cy="621.1951458001364" opacity="0.3505842436811285"></circle><circle r="5.509757118923291" cx="21.929775457857122" cy="492.87497837928197" opacity="0.712152994384694"></circle><circle r="8.488547086181635" cx="163.45511786484616" cy="779.1479306775213" opacity="0.6770718491871586"></circle><circle r="9.974683149580041" cx="757.241127880382" cy="313.37042031222506" opacity="0.19463993346180536"></circle><circle r="8.37574836465157" cx="146.41348250525238" cy="375.56997525308316" opacity="0.8333974481064309"></circle><circle r="4.645184411816931" cx="712.0117317143233" cy="757.3655695168227" opacity="0.5058868188867819"></circle><circle r="4.267347484210559" cx="331.85308517402876" cy="30.52219713022533" opacity="0.6723047537933701"></circle><circle r="9.624423045506145" cx="667.9818727522436" cy="20.84833647801497" opacity="0.3905723563898562"></circle><circle r="8.004877746883682" cx="15.861014543298674" cy="84.97179577944286" opacity="0.343843538343772"></circle><circle r="10.159508163340014" cx="589.5083889420091" cy="238.0775866325388" opacity="0.4442054841722809"></circle><circle r="8.19818607529913" cx="440.5305607846462" cy="517.9383929114449" opacity="0.9709854988301269"></circle><circle r="4.200269388928931" cx="281.911200337637" cy="74.32295944954615" opacity="0.30754567432125207"></circle><circle r="7.976422231179466" cx="692.8768328475971" cy="721.1535076064507" opacity="0.6020489847386387"></circle><circle r="6.500115636074099" cx="186.3800369640598" cy="376.5894012426065" opacity="0.5588922434230212"></circle><circle r="8.145093331283466" cx="118.41581382745399" cy="257.4972883597013" opacity="0.37437285109951524"></circle><circle r="9.76477796296625" cx="26.011063985708564" cy="731.7631334048064" opacity="0.8889377393514647"></circle><circle r="6.848353486853509" cx="256.21177118543244" cy="175.62538631160572" opacity="0.5027428780511224"></circle><circle r="8.737241439133383" cx="335.7221506474333" cy="317.83565809072326" opacity="0.8878228037621072"></circle><circle r="6.394123604672624" cx="538.1104972432543" cy="259.3613752824029" opacity="0.2600123294783083"></circle><circle r="3.74707423068185" cx="788.0603438193086" cy="724.736573297023" opacity="0.5889379423851615"></circle><circle r="9.676135565188655" cx="24.60060070208469" cy="32.92042519869505" opacity="0.13726195456871956"></circle><circle r="6.060214560270389" cx="62.87757325856507" cy="207.33216293294387" opacity="0.46024093217563333"></circle><circle r="7.211977975004103" cx="390.05009371692904" cy="155.15062659690523" opacity="0.5386091536991404"></circle><circle r="5.380173422388065" cx="348.36379496316715" cy="113.44916076242555" opacity="0.5377038019556304"></circle><circle r="8.77246744500404" cx="568.1253511043376" cy="688.0254442469848" opacity="0.32376863709228354"></circle><circle r="9.902341208549117" cx="495.5187273472786" cy="207.26125425679754" opacity="0.6634203193254025"></circle><circle r="10.240139834201198" cx="640.791374389765" cy="375.8017982744103" opacity="0.15967175247170878"></circle><circle r="6.630975988808352" cx="109.53063762026815" cy="333.88887489909746" opacity="0.14283440985015264"></circle><circle r="5.550558522150191" cx="432.01072351417156" cy="223.90260529898507" opacity="0.8806581000579623"></circle><circle r="8.052330353378444" cx="249.4728354023186" cy="261.44976392345853" opacity="0.4423970381051303"></circle><circle r="5.387672532874139" cx="203.7134294318115" cy="155.17139472692645" opacity="0.5885210955735287"></circle><circle r="9.233894808181201" cx="89.74089241311243" cy="53.015380609287185" opacity="0.8789607124340135"></circle><circle r="9.171865284462324" cx="699.7190447651241" cy="209.15097151658884" opacity="0.6934179479397892"></circle><circle r="3.6404411787381106" cx="278.1296298414948" cy="439.5515355321073" opacity="0.45940455345610576"></circle><circle r="8.222734621353139" cx="61.26697990017766" cy="166.23285649472749" opacity="0.4301265237073433"></circle><circle r="6.828698331939965" cx="129.06724322807463" cy="414.8638440924462" opacity="0.2351480354776245"></circle><circle r="6.538002740217136" cx="193.08454066702103" cy="530.9300679762783" opacity="0.7015981781955444"></circle><circle r="5.48111125099405" cx="336.36703828202434" cy="451.48990789935624" opacity="0.29211641745652367"></circle><circle r="5.423675368354964" cx="654.7495098326307" cy="528.3172130912188" opacity="0.1502938452987842"></circle><circle r="7.127256331860302" cx="224.97905942374138" cy="457.56756937237895" opacity="0.550446111336717"></circle><circle r="6.387453424929048" cx="532.9683790607613" cy="224.70658144223398" opacity="0.2861214554622685"></circle><circle r="8.820039491471949" cx="692.7361571255758" cy="455.0671282190586" opacity="0.4882313434824572"></circle><circle r="7.459393614764258" cx="577.5771105786337" cy="402.29556248295864" opacity="0.5395056802536577"></circle><circle r="9.76999635600804" cx="476.93000040198046" cy="358.1803812782542" opacity="0.34797976212541193"></circle><circle r="8.0620638048947" cx="527.4355410489604" cy="697.938163187301" opacity="0.5785485874403146"></circle><circle r="9.659873482479396" cx="372.648807187355" cy="78.95862582826658" opacity="0.9814556353252194"></circle><circle r="8.687292278356875" cx="20.233216908904982" cy="641.9177004200984" opacity="0.4780597796909073"></circle><circle r="4.592377670784916" cx="664.0715293840709" cy="631.2836433110976" opacity="0.37320851218764794"></circle><circle r="4.929299158086096" cx="176.11566182342304" cy="460.0164153811104" opacity="0.12796681362730233"></circle><circle r="7.707474606477777" cx="481.9840384854789" cy="254.09540374220293" opacity="0.19213026903928795"></circle><circle r="3.949663356283285" cx="226.94065946568838" cy="297.27517522474596" opacity="0.573584114086215"></circle><circle r="9.102358981431347" cx="164.98781776764457" cy="427.46304564285936" opacity="0.25109410685247624"></circle><circle r="4.8751909017326245" cx="773.569455965398" cy="189.36352152999964" opacity="0.17152707016104285"></circle><circle r="7.47652703814134" cx="653.0229672879992" cy="729.0918838806698" opacity="0.19671867402437992"></circle><circle r="7.621462536564299" cx="19.455208850324084" cy="178.2927061550284" opacity="0.9537077708157425"></circle><circle r="8.388292444825712" cx="315.6045346850238" cy="669.7799344014891" opacity="0.3898553083835623"></circle><circle r="6.666733127588949" cx="617.9432122442344" cy="330.7947006892481" opacity="0.5205609879177788"></circle><circle r="3.748434876728796" cx="35.50121846192443" cy="137.4798013804062" opacity="0.5425021122657209"></circle><circle r="9.990350516674251" cx="284.1847507407314" cy="199.8855288664942" opacity="0.39295969151061194"></circle><circle r="6.9275134303255586" cx="199.00550470639328" cy="29.05835663742354" opacity="0.33957005793692785"></circle><circle r="10.184621551155692" cx="153.68507485824776" cy="639.746310149556" opacity="0.17396233360256746"></circle><circle r="4.3543409722069315" cx="286.80608396745964" cy="616.5296993207605" opacity="0.8368756041042134"></circle><circle r="9.83166629743417" cx="561.8303760603766" cy="182.9820893731826" opacity="0.6026549251674411"></circle><circle r="6.116725987686049" cx="242.783500050882" cy="83.57544874149782" opacity="0.42220546127636827"></circle><circle r="9.556387941753744" cx="780.4319092604785" cy="105.52384432215962" opacity="0.41325318415080736"></circle><circle r="5.200123098485558" cx="282.07439602517405" cy="716.6292038407838" opacity="0.6022257904954892"></circle><circle r="6.255664997259345" cx="92.5255540765101" cy="99.01339055496703" opacity="0.6384424895990748"></circle><circle r="7.1600493629317326" cx="424.9960636560157" cy="759.8161870359928" opacity="0.9309399501435738"></circle><circle r="7.776543488432585" cx="648.2523526672774" cy="576.8164598716758" opacity="0.15933186575204938"></circle><circle r="5.142330400840826" cx="177.17639376791266" cy="589.6202762792432" opacity="0.24616916027473315"></circle><circle r="4.829149354554653" cx="618.9384895053679" cy="541.7730550466351" opacity="0.6500613421624131"></circle><circle r="10.8581955546165" cx="358.8501270297863" cy="709.1898982864378" opacity="0.8373273302372952"></circle><circle r="7.830276091005498" cx="664.1301572111395" cy="427.8138872179989" opacity="0.11864161181995721"></circle><circle r="3.1688888606717525" cx="255.13635633742655" cy="449.90605705464554" opacity="0.6413779491628939"></circle><circle r="4.961176768802474" cx="557.8746334850429" cy="504.50723411208384" opacity="0.5960171794983058"></circle><circle r="6.8448190149626384" cx="281.9290759662786" cy="528.6943219716491" opacity="0.7352672828828526"></circle><circle r="5.212017749871682" cx="621.6365947340164" cy="599.6980076534475" opacity="0.4938688405724174"></circle><circle r="7.201206860259705" cx="206.50836359888558" cy="427.76010742700515" opacity="0.8969340258237833"></circle><circle r="8.310397377752388" cx="163.10140084082937" cy="194.95770875938828" opacity="0.3262349386282092"></circle><circle r="8.869476213102558" cx="494.0494756552861" cy="739.5352465299768" opacity="0.9537152002108998"></circle><circle r="6.675529721579679" cx="421.02329637939135" cy="19.976857949786496" opacity="0.45156845550202884"></circle><circle r="6.074786131920728" cx="341.33572773793145" cy="174.34347540574703" opacity="0.6690114774032109"></circle><circle r="7.589370169870342" cx="776.1450939960409" cy="494.69511746116063" opacity="0.7076677896786037"></circle><circle r="4.524154258948186" cx="243.25658246615964" cy="500.20755510748893" opacity="0.9688622667286396"></circle><circle r="3.826178353477023" cx="45.793807406484575" cy="549.1331852139781" opacity="0.40441827581401046"></circle><circle r="8.62082650905571" cx="339.78470664377704" cy="566.1507160749151" opacity="0.5317478877660129"></circle><circle r="9.49119752135383" cx="731.9913567477246" cy="366.2481986204701" opacity="0.968889496893222"></circle><circle r="10.43107909387889" cx="53.403955621566276" cy="327.045543395186" opacity="0.5918018032933412"></circle><circle r="4.046926222823269" cx="415.8233097181214" cy="305.5969361617878" opacity="0.9567954712741461"></circle><circle r="6.479201168678656" cx="406.72224501993594" cy="647.6162250566563" opacity="0.7519579677874483"></circle><circle r="4.918920852712901" cx="394.7220581412598" cy="707.0903370794706" opacity="0.45496682652147946"></circle><circle r="5.9356777300965495" cx="619.9354266842508" cy="156.29039232657559" opacity="0.5314316961361334"></circle><circle r="5.1047873043104355" cx="321.42380356536825" cy="67.27076212427002" opacity="0.36884272206235347"></circle><circle r="5.89234499397533" cx="542.9372893253262" cy="533.0434608328278" opacity="0.47051941476439973"></circle><circle r="7.886477756310731" cx="224.6916383749037" cy="124.41301598627436" opacity="0.705836091143762"></circle><circle r="8.194538053093462" cx="625.2814419540753" cy="655.760524543126" opacity="0.798060402545653"></circle><circle r="9.221880118805032" cx="596.1426005747396" cy="733.3413801323073" opacity="0.4654842004009433"></circle><circle r="3.814349770412986" cx="634.1761082453287" cy="622.6797515113262" opacity="0.34462274149196026"></circle><circle r="10.906716413351118" cx="774.9389832697597" cy="666.4308083665334" opacity="0.857456772020482"></circle><circle r="6.233833257696785" cx="762.7102355233586" cy="714.1974781927365" opacity="0.6078728615875498"></circle><circle r="8.45676489895519" cx="53.18664559636365" cy="510.47310617540074" opacity="0.34767100194433787"></circle><circle r="6.60655126776185" cx="168.98517838872294" cy="493.9533280169228" opacity="0.44193047826665965"></circle><circle r="6.633411613422837" cx="447.5335334214392" cy="322.43944334480943" opacity="0.45554174390197855"></circle><circle r="9.159333664134305" cx="296.10141281552586" cy="494.3750882265382" opacity="0.7290036806482749"></circle><circle r="8.425533156702718" cx="699.9193415585" cy="555.5517666800199" opacity="0.8569605630655783"></circle><circle r="7.053699761298173" cx="67.19227069835446" cy="18.16709182629927" opacity="0.15219304015571003"></circle><circle r="10.126585230027962" cx="154.27574958305962" cy="554.2659548403215" opacity="0.5718638434771419"></circle><circle r="7.6182158446366515" cx="39.6301023362956" cy="265.550876801236" opacity="0.35493167981872886"></circle><circle r="9.968806507746942" cx="479.85157753704334" cy="24.635250725394464" opacity="0.4999673505808656"></circle><circle r="5.121237238024257" cx="271.98933304225795" cy="478.58184143538483" opacity="0.48695390852712184"></circle><circle r="7.607917549888354" cx="212.42380185737724" cy="737.9955236247987" opacity="0.7784079481196823"></circle><circle r="5.079729494644511" cx="285.76006491073275" cy="681.1960764920611" opacity="0.21788642045673814"></circle><circle r="7.147849747634968" cx="307.27505618635007" cy="142.38146158633202" opacity="0.49137659972778014"></circle><circle r="5.823294386904769" cx="596.8468292413862" cy="585.1632327457703" opacity="0.12621356801024702"></circle><circle r="6.295765129355152" cx="606.0983378549339" cy="286.3943809254066" opacity="0.2929097495824221"></circle><circle r="5.548682587726134" cx="571.4299223213667" cy="322.97507828372324" opacity="0.900530011188688"></circle><circle r="9.04909026747415" cx="628.6266797277652" cy="694.6072047733945" opacity="0.7303637645094815"></circle><circle r="5.432580960384669" cx="692.1194240754652" cy="657.7898932265762" opacity="0.5015147607410642"></circle><circle r="5.285173897573354" cx="35.81592405166853" cy="370.1711728174261" opacity="0.1295606072765313"></circle><circle r="6.335065107915028" cx="384.28983394132064" cy="462.1502285801276" opacity="0.9421419393738844"></circle><circle r="4.689554921360843" cx="74.85949861150182" cy="537.2961500971097" opacity="0.43902271880383004"></circle><circle r="5.537840567352102" cx="538.7459740395769" cy="292.4424194975625" opacity="0.16517185100272092"></circle><circle r="8.221200624661996" cx="731.314521856507" cy="27.943069055582328" opacity="0.14516459398800935"></circle><circle r="9.110818330834089" cx="205.70186033846545" cy="621.8790004805631" opacity="0.16496918482015413"></circle><circle r="5.96434613867719" cx="15.115432651631407" cy="285.64016597281693" opacity="0.3538887627894719"></circle><circle r="8.792931876146405" cx="677.9612847756802" cy="339.98474321859027" opacity="0.7645688142820954"></circle><circle r="6.877041479761264" cx="342.61243753540094" cy="487.6198341698736" opacity="0.5530980390182743"></circle><circle r="6.235901522229039" cx="736.5579004943745" cy="193.85197256060627" opacity="0.7636967025219844"></circle><circle r="6.747339201768122" cx="367.69197819684314" cy="361.0133767943844" opacity="0.8570219032767586"></circle><circle r="6.57684730626017" cx="591.1920532575281" cy="662.2289874889857" opacity="0.37546664108273464"></circle><circle r="5.927580379798108" cx="138.03571535672742" cy="511.5222904859572" opacity="0.31927646350075944"></circle><circle r="5.423449246034129" cx="391.3512360851657" cy="496.99206276280273" opacity="0.14181686688046924"></circle><circle r="6.860094494358732" cx="29.699748318123632" cy="684.5862848641199" opacity="0.3254911189965777"></circle><circle r="8.225118618428747" cx="778.8044171618631" cy="156.03961642119117" opacity="0.6568289620004099"></circle><circle r="7.938784075826999" cx="206.1042465306583" cy="487.0283728519092" opacity="0.3373380465619338"></circle><circle r="9.372790222798969" cx="191.75597770157296" cy="89.38900180528499" opacity="0.31156391249075865"></circle><circle r="6.4951865061923275" cx="519.3514229637922" cy="382.4188920758215" opacity="0.80078285711654"></circle><circle r="7.61494731594969" cx="148.2371947429553" cy="152.11560754590008" opacity="0.8099674656853703"></circle><circle r="5.357393399341525" cx="677.8078888109053" cy="91.55167530627487" opacity="0.28197172107873336"></circle><circle r="6.182054195975139" cx="434.19721274698315" cy="719.7791330775113" opacity="0.32451098300853176"></circle><circle r="7.041921498688275" cx="86.61840665712064" cy="415.4827192937017" opacity="0.6433606886494911"></circle><circle r="5.7530014870126935" cx="527.949097232563" cy="624.3735255914755" opacity="0.24393506136640614"></circle><circle r="9.515429081484067" cx="723.9657790352841" cy="645.4236268432433" opacity="0.20795718620964126"></circle><circle r="4.25330491082865" cx="62.74249132603382" cy="286.881203210645" opacity="0.37187087845724787"></circle><circle r="6.705520315609983" cx="91.22394161084964" cy="681.8186856159558" opacity="0.3008909679442865"></circle><circle r="8.731097731542595" cx="430.4428759739947" cy="449.5641835275046" opacity="0.1541941583945558"></circle><circle r="3.7918305809585506" cx="260.73015097292176" cy="344.34583852829877" opacity="0.974395238422228"></circle><circle r="11.195464447115262" cx="535.0359735594618" cy="34.3144099725764" opacity="0.8801452829315389"></circle><circle r="5.3638017288616915" cx="532.8580153046992" cy="332.9852872433197" opacity="0.2132811685098162"></circle><circle r="6.9583645301389065" cx="560.9335836071242" cy="573.5811742456126" opacity="0.30626712554735525"></circle><circle r="7.9046399514175025" cx="773.007824553432" cy="265.6427968938159" opacity="0.8228487673697971"></circle><circle r="8.164853680145256" cx="739.0367685376549" cy="570.366639069173" opacity="0.6030918436389932"></circle><circle r="7.3475622071042235" cx="316.7032023760035" cy="601.1516551063465" opacity="0.8994876740210046"></circle><circle r="9.427492456023945" cx="478.65466952749875" cy="461.8250460689211" opacity="0.7967713189932264"></circle><circle r="5.012644789493555" cx="331.59859817954384" cy="522.7473485726306" opacity="0.4168377931094064"></circle><circle r="7.912929208623435" cx="744.1610154516907" cy="784.087259872988" opacity="0.14008293510942113"></circle><circle r="9.274395523290085" cx="330.4271232274466" cy="746.6815195753803" opacity="0.9790692851459176"></circle><circle r="6.789813968020644" cx="700.1183142106153" cy="55.95903085652812" opacity="0.41540209711761167"></circle><circle r="8.107440791286262" cx="219.3674234970969" cy="569.3865814637513" opacity="0.9510048760222592"></circle><circle r="6.357237091389359" cx="731.2072067777467" cy="696.6378788420205" opacity="0.6945202119952022"></circle></g></svg>